<?xml version="1.0" encoding="UTF-8"?>
<svg width="800px" height="423px" viewBox="0 0 800 423" version="1.1" xmlns="http://www.w3.org/2000/svg" xmlns:xlink="http://www.w3.org/1999/xlink">
    <!-- Generator: Sketch 41.1 (35376) - http://www.bohemiancoding.com/sketch -->
    <title>capital</title>
    <desc>Created with Sketch.</desc>
    <defs></defs>
    <g id="Page-1" stroke="none" stroke-width="1" fill="none" fill-rule="evenodd">
        <g id="capital">
            <rect id="Rectangle" fill="#DEEDF7" x="157.926518" y="251" width="132.073482" height="172"></rect>
            <rect id="Rectangle" fill="#DEEDF7" x="516" y="251" width="132.073482" height="172"></rect>
            <rect id="Rectangle" fill="#DEEDF7" x="325" y="139" width="157.25487" height="76.6146789"></rect>
            <rect id="Rectangle" fill="#FEE4D4" x="337" y="108" width="132.073482" height="31.0458716"></rect>
            <rect id="Rectangle-2" fill="#95C4F3" x="290" y="215" width="226.283107" height="216"></rect>
            <rect id="Rectangle-2" fill="#95C4F3" x="1.42108547e-14" y="251" width="157.25487" height="172"></rect>
            <rect id="Rectangle-2" fill="#95C4F3" x="643" y="251" width="157.25487" height="172"></rect>
            <rect id="Rectangle" fill="#DEEDF7" x="350" y="283" width="105" height="140.341929"></rect>
            <ellipse id="Oval" fill="#DEEDF7" cx="402.5" cy="284.072745" rx="52.5" ry="49.072745"></ellipse>
            <ellipse id="Oval-2" fill="#DEEDF7" cx="403.036741" cy="114.34633" rx="66.0367412" ry="86.3463303"></ellipse>
            <rect id="Rectangle-4" fill="#C2DBF4" x="476" y="147" width="5.97170393" height="61.8668707"></rect>
            <rect id="Rectangle-4" fill="#C2DBF4" x="325" y="139" width="157.25487" height="8"></rect>
            <rect id="Rectangle-4" fill="#C2DBF4" x="318" y="131" width="170.275974" height="8"></rect>
            <rect id="Rectangle-4" fill="#C2DBF4" x="325" y="208" width="157.25487" height="8"></rect>
            <rect id="Rectangle-4" fill="#C2DBF4" x="375" y="147" width="5.97170393" height="61.8668707"></rect>
            <rect id="Rectangle-4" fill="#C2DBF4" x="450" y="147" width="5.97170393" height="61.8668707"></rect>
            <rect id="Rectangle-4" fill="#C2DBF4" x="400" y="147" width="5.97170393" height="61.8668707"></rect>
            <rect id="Rectangle-4" fill="#C2DBF4" x="325" y="147" width="5.97170393" height="61.8668707"></rect>
            <rect id="Rectangle-4" fill="#C2DBF4" x="349" y="147" width="5.97170393" height="61.8668707"></rect>
            <rect id="Rectangle-4" fill="#C2DBF4" x="425" y="147" width="5.97170393" height="61.8668707"></rect>
            <polygon id="Triangle" fill="#95C4F3" points="403.229202 154 469.458404 185.045872 337 185.045872"></polygon>
            <polygon id="Triangle" fill="#95C4F3" points="78.6274351 231 157.25487 252 0 252"></polygon>
            <polygon id="Triangle" fill="#95C4F3" points="721.627435 231 800.25487 252 643 252"></polygon>
            <polygon id="Triangle" fill="#C2DBF4" points="403 164 448 185 358 185"></polygon>
            <rect id="Rectangle-2" fill="#FEAD54" x="337" y="185" width="132.458404" height="31.0458716"></rect>
            <rect id="Rectangle-2" fill="#95C4F3" x="337" y="185" width="132.458404" height="31.0458716"></rect>
            <rect id="Rectangle-3" fill="#DEEDF7" x="396" y="0" width="15.7699681" height="31.0458716"></rect>
        </g>
    </g>
</svg>