<?xml version="1.0" encoding="UTF-8"?>
<svg width="1053px" height="841px" viewBox="0 0 1053 841" version="1.1" xmlns="http://www.w3.org/2000/svg" xmlns:xlink="http://www.w3.org/1999/xlink">
    <!-- Generator: Sketch 41.1 (35376) - http://www.bohemiancoding.com/sketch -->
    <title>church</title>
    <desc>Created with Sketch.</desc>
    <defs></defs>
    <g id="Page-1" stroke="none" stroke-width="1" fill="none" fill-rule="evenodd">
        <g id="church">
            <rect id="Rectangle-18" fill="#F8D0C3" x="521" y="45" width="12" height="54"></rect>
            <polygon id="Rectangle-15" fill="#F7E7E2" points="50.5377412 566 1005.73859 566 1051.55007 840.336418 1 840.336418"></polygon>
            <polygon id="Rectangle-15" fill="#F8D0C3" points="167.440354 477 889.375933 477 924 841 130 841"></polygon>
            <polygon id="Rectangle-16" fill="#F8D0C3" points="411 53.1699102 526.83992 0 642.679839 53.1699102 642.679839 217.132812 591.923261 217.132812 591.923261 84.8640417 526.83992 53.1699102 464.669961 84.8640417 464.669961 217.132812 412.34074 217.132812"></polygon>
            <polygon id="Rectangle-11" fill="#FAAD96" points="290.450006 257.757518 531.042246 170 765.419296 268.441422 805.186965 841.050599 245 841.050599"></polygon>
            <polygon id="Rectangle-11" fill="#F7E7E2" points="380.203956 813 675.986868 813 727.684759 840.859003 331 840.859003"></polygon>
            <path d="M408.391453,395.230128 L394,813.327163 L659.648299,813.327163 L639.389911,395.725851 C639.389911,346.171632 587.679145,306 523.890682,306 C460.315058,306 408.736668,345.904002 408.393179,395.230132 Z" id="Combined-Shape" fill="#FDCFAD"></path>
            <path d="M422.861589,405.119534 L410,813.327163 L647.408909,813.327163 L629.304062,405.603532 C629.304062,357.221437 583.09034,318 526.082825,318 C469.265524,318 423.170106,356.960138 422.863131,405.119538 Z" id="Combined-Shape" fill="#F7E7E2"></path>
            <path d="M620.196194,419.936947 L632.817772,813.327163 L425,813.327163 L433.973655,419.936947 C433.973655,369.713858 467.396496,329 527.043249,329 C586.690002,329 620.196194,369.713858 620.196194,419.936947 Z" id="Combined-Shape" fill="#434A5E"></path>
            <path d="M521,329.190918 C521,329.190918 523.561696,329 526.856163,329 C530.15063,329 533,329.190918 533,329.190918 L533,583.033436 L521,583.033436 L521,329.190918 Z" id="Rectangle-13" fill="#F7E7E2"></path>
            <path d="M433.295054,414 L620.64167,414 C620.64167,414 620.780733,416.493835 620.844394,420 C620.908056,423.506165 621,426 621,426 L433,426 C433,426 433.038296,424.216675 433.109016,419.60968 C433.179736,415.002686 433.295054,414 433.295054,414 Z" id="Rectangle-2" fill="#F7E7E2"></path>
            <polygon id="Rectangle-12" fill="#F8D0C3" points="429.989352 583 625.183641 583 626.597328 625 429 625"></polygon>
        </g>
    </g>
</svg>